<svg id="icon" xmlns="http://www.w3.org/2000/svg" xmlns:xlink="http://www.w3.org/1999/xlink" viewBox="0 0 70.06 92.31"><defs><linearGradient id="linear-gradient" x1="77.4" y1="124.57" x2="147.46" y2="124.57" gradientUnits="userSpaceOnUse"><stop offset="0" stop-color="#2b3990"/><stop offset="0.39" stop-color="#2b388d"/><stop offset="0.62" stop-color="#2a3485"/><stop offset="0.81" stop-color="#282c77"/><stop offset="0.98" stop-color="#262263"/><stop offset="0.99" stop-color="#262262"/></linearGradient><linearGradient id="linear-gradient-2" x1="77.42" y1="98.09" x2="147.35" y2="98.09" xlink:href="#linear-gradient"/></defs><title>icon-s</title><g id="icon-g"><path id="down-budy" d="M77.4,117.84c3.82,2.23,7.23,4.13,10.51,6.23.51.32.72,1.58.59,2.32-.73,4.21,2.1,5.72,6.73,7.76a69.34,69.34,0,0,1,14.64,8.8c2.57,2,3.36,2.3,5.91.2a73.76,73.76,0,0,1,18.15-10.72c2.06-.88,2.79-1.66,2.71-3.44-.12-2.54.1-5.09,0-7.63a2.9,2.9,0,0,0-1.06-2.07c-5.36-3.29-10.78-6.47-16.18-9.68-6.57-3.9-13.13-7.81-19.91-11.85,3.42-2,6.67-4,10-5.88a2.25,2.25,0,0,1,1.81.25Q128.85,102.5,146.36,113a2.4,2.4,0,0,1,1,1.67q.1,10.76,0,21.5a2.4,2.4,0,0,1-1,1.68q-16.2,9.72-32.48,19.31a2.47,2.47,0,0,1-2.14,0q-16.62-9.81-33.13-19.8a2.78,2.78,0,0,1-1.07-2.06c0-4.66.14-9.32.19-14A34.28,34.28,0,0,0,77.4,117.84Z" transform="translate(-77.4 -65.05)" fill="url(#linear-gradient)"/><path id="up-budy" d="M102.09,71c3.28-2,6.57-3.9,10-6l15.78,9.39c6,3.61,12.09,7.2,18.1,10.86A2.64,2.64,0,0,1,147.28,87c.1,5.83.06,11.66.06,17.89-3.62-2.15-7-4.09-10.3-6.23-.48-.31-.59-1.59-.47-2.37.42-2.89-.7-4.55-3.31-6-6-3.3-11.89-7-18-10.61l-1.51-1.12a2.56,2.56,0,0,0-2.83-.16l-1.49.86C103,83.14,96.48,87.05,90,90.86c-1.35.78-1.77,1.66-1.45,3.56s-.24,3.57,0,5.81c.3,2.41.25,3.17,1.56,3.8q16.71,9.84,33.38,19.79c.56.33,1.11.7,2,1.25-3.52,2.09-6.81,4.08-10.15,6a1.79,1.79,0,0,1-1.43-.22q-17.73-10.5-35.41-21.09a2.59,2.59,0,0,1-1-1.92c-.07-6.91-.07-13.82,0-20.73a3.13,3.13,0,0,1,1.26-2.18,61.82,61.82,0,0,1,8.84-5.17c1.83-.78,3.15-2.14,4.84-3" transform="translate(-77.4 -65.05)" fill="url(#linear-gradient-2)"/></g></svg>