<svg id="Layer_1" data-name="Layer 1" xmlns="http://www.w3.org/2000/svg" viewBox="0 0 180.66 33.27"><title>Untitled-1</title><g id="Icons"><g id="Rounded"><g id="Maps"><path d="M19.57,7.61a3.08,3.08,0,1,0-2.76-3.37A3.09,3.09,0,0,0,19.57,7.61Z" transform="translate(-1.9 -1.23)" fill="#fff" fill-rule="evenodd"/><path d="M27.56,11.66l-2.41,2.69a3.1,3.1,0,0,1-3.3.88l-2.33-.67-.16.32a7.92,7.92,0,0,0-1,1.9l-.86,3,2,2.39a3.09,3.09,0,0,1,.73,2.32l-.86,8.64a1.54,1.54,0,1,1-3.06-.34l.76-7.63-2.92-3.38L13,25.5a3.08,3.08,0,0,1-3.82,2L3,25.59a1.55,1.55,0,0,1-1-1.93V23.6a1.55,1.55,0,0,1,1.93-1l5.88,1.83,3.69-12.17-2.87.8-.36,3.68a1.54,1.54,0,1,1-3.06-.35l.36-3.59A3.09,3.09,0,0,1,9.7,10.13l6.35-2c.46.05.78-.07,1.24,0a3.18,3.18,0,0,1,2.46,1.79l.1.21a5.26,5.26,0,0,1,.42,1.25l2.55,1,2.47-2.76a1.54,1.54,0,1,1,2.27,2.08Z" transform="translate(-1.9 -1.23)" fill="#fff" fill-rule="evenodd"/></g></g></g><path d="M165.46,16.56H159.8v5.66h5.66Zm0-11.32H159.8V10.9h5.66Zm5.66,5.66h-5.66v5.66h5.66Zm0,11.32h-5.66v5.66h5.66Zm5.66,0v5.66h5.66V22.22Zm0-5.66h-5.66v5.66h5.66Zm0-5.66V5.24h-5.66V10.9Zm0,5.66h5.66V10.9h-5.66Zm5.66,11.32,0-17-5.66-5.66-17,0" transform="translate(-1.9 -1.23)" fill="#fff"/><rect x="157.9" y="4.01" width="22.64" height="22.64" fill="none" stroke="#fff" stroke-miterlimit="10" stroke-width="0.25"/><path d="M143.53,30.05H123.25a.44.44,0,0,1-.31-.13.47.47,0,0,1-.12-.32l1-20.28a.43.43,0,0,1,.43-.41h18.34a.43.43,0,0,1,.43.41l1,20.28a.47.47,0,0,1-.12.32A.44.44,0,0,1,143.53,30.05Zm-19.83-.86h19.38l-.92-19.42H124.63Z" transform="translate(-1.9 -1.23)" fill="#fff" stroke="#fff" stroke-miterlimit="10"/><path d="M138,11.49a.43.43,0,0,1-.43-.43V6.79a4.21,4.21,0,0,0-8.42,0v4.27a.43.43,0,0,1-.86,0V6.79a5.07,5.07,0,0,1,10.14,0v4.27A.43.43,0,0,1,138,11.49Z" transform="translate(-1.9 -1.23)" fill="#fff" stroke="#fff" stroke-miterlimit="10"/><g id="Pentool"><path d="M105.94,15h-.6a9.86,9.86,0,0,0-6.49-9h5a1.21,1.21,0,1,0,0-.6H96.63v-.6a.29.29,0,0,0-.3-.3h-1.8a.29.29,0,0,0-.3.3v.6H87a1.2,1.2,0,1,0-2.33.6A1.21,1.21,0,0,0,87,6h5a9.86,9.86,0,0,0-6.49,9h-.6a.29.29,0,0,0-.3.3v1.8a.29.29,0,0,0,.3.3h1.8a.3.3,0,0,0,.3-.3V15.3a.3.3,0,0,0-.3-.3h-.6a9.26,9.26,0,0,1,8.11-8.93v.52a.3.3,0,0,0,.3.3h1.8a.3.3,0,0,0,.3-.3V6.07A9.26,9.26,0,0,1,104.74,15h-.6a.3.3,0,0,0-.3.3v1.8a.3.3,0,0,0,.3.3h1.8a.29.29,0,0,0,.3-.3V15.3A.29.29,0,0,0,105.94,15Z" transform="translate(-1.9 -1.23)" fill="#fff"/><path d="M96.3,8.26a.3.3,0,0,0-.4-.14.29.29,0,0,0-.17.27v9.74a.29.29,0,0,0,.18.27,1.2,1.2,0,1,1-1.58.62A1.21,1.21,0,0,1,95,18.4a.29.29,0,0,0,.18-.27V8.39a.3.3,0,0,0-.57-.13L88.85,19.67a.32.32,0,0,0,0,.27L91,24.31h8.78L102,19.94a.32.32,0,0,0,0-.27Z" transform="translate(-1.9 -1.23)" fill="#fff"/><rect x="88.12" y="23.69" width="10.81" height="2.4" rx="0.3" fill="#fff"/><path d="M90.92,30a.3.3,0,0,0,.3.3h8.42a.3.3,0,0,0,.3-.3v-2.1h-9Z" transform="translate(-1.9 -1.23)" fill="#fff"/></g><g id="Camera"><path d="M46.43,11.33h1.82a.31.31,0,1,0,0-.61H46.43a.31.31,0,0,0,0,.61Z" transform="translate(-1.9 -1.23)" fill="#fff"/><path d="M45.83,13.15h3.94a1.83,1.83,0,0,0,1.82-1.82v-.61A1.82,1.82,0,0,0,49.77,8.9H44.92a1.81,1.81,0,0,0-1.82,1.82v5.16A2.73,2.73,0,0,1,45.83,13.15Zm.6-3h1.82a.91.91,0,1,1,0,1.82H46.43a.91.91,0,0,1,0-1.82Z" transform="translate(-1.9 -1.23)" fill="#fff"/><path d="M61.88,6.06a.29.29,0,0,0-.28-.19H54.32a.29.29,0,0,0-.28.19l-.9,2.23h9.64Z" transform="translate(-1.9 -1.23)" fill="#fff"/><path d="M66.76,7.69a.31.31,0,0,0-.31-.31H64a.31.31,0,0,0-.31.31v.6h3Z" transform="translate(-1.9 -1.23)" fill="#fff"/><path d="M58,24.07a5.46,5.46,0,1,0-5.46-5.46A5.46,5.46,0,0,0,58,24.07Zm0-9.71a4.25,4.25,0,1,1-4.25,4.25A4.25,4.25,0,0,1,58,14.36Z" transform="translate(-1.9 -1.23)" fill="none"/><path d="M58,22.25a3.64,3.64,0,1,0-3.64-3.64A3.64,3.64,0,0,0,58,22.25Zm0-6.07a.31.31,0,0,1,0,.61,1.82,1.82,0,0,0-1.82,1.82.31.31,0,0,1-.61,0A2.43,2.43,0,0,1,58,16.18Z" transform="translate(-1.9 -1.23)" fill="#fff"/><path d="M52.2,10.72h17A1.81,1.81,0,0,0,67.36,8.9h-16A2.4,2.4,0,0,1,52.2,10.72Z" transform="translate(-1.9 -1.23)" fill="#fff"/><path d="M49.77,13.75A1.22,1.22,0,0,0,48.56,15h0V26.19a.77.77,0,0,1-.06.3H67.67A1.51,1.51,0,0,0,69.18,25V11.33h-17A2.43,2.43,0,0,1,49.77,13.75ZM67.36,25.28H63.72a.3.3,0,0,1-.3-.3.31.31,0,0,1,.3-.31h3.64a.31.31,0,0,1,.31.31A.3.3,0,0,1,67.36,25.28Zm-1.82-1.82h1.82a.31.31,0,1,1,0,.61H65.54a.31.31,0,0,1,0-.61ZM58,12.54a6.07,6.07,0,1,1-6.07,6.07A6.07,6.07,0,0,1,58,12.54Z" transform="translate(-1.9 -1.23)" fill="#fff"/><path d="M43.7,15.88v8.79a1.82,1.82,0,0,0,1.82,1.82h2.13a.3.3,0,0,0,.3-.3V15a1.79,1.79,0,0,1,.47-1.22H45.83A2.13,2.13,0,0,0,43.7,15.88Z" transform="translate(-1.9 -1.23)" fill="#fff"/></g><path d="M128.43,12.71c0-.44,2.21,2.18,4.86,2.14S138,12.13,138,12.57s-2.13,3-4.78,3S128.44,13.16,128.43,12.71Z" transform="translate(-1.9 -1.23)" fill="none"/></svg>